#!OML:ASF F:\VICON\USERDATA\INSTALL\rory3\rory3.ASF
:FULLY-SPECIFIED
:DEGREES
46
root -0.17160731952121938 16.992751320663004 18.4793419887997 3.2914020829334567 -2.9584645424227367 -5.570736578364939
lfemur -27.251043011027953 6.577893213708361 -10.256956298256739
ltibia 97.92261318729575
lfoot 1.8617681534143011 -5.576101460301542
ltoes -3.9832229790179143
rfemur -19.632327577612738 4.297748227058608 35.82358494782923
rtibia 57.92389164260945
rfoot -18.888383875894377 -16.99185507677133
rtoes 0.7431019431117667
lowerback 17.17326650177111 0.8268564771886515 3.5814712082542677
upperback -0.08673955840087832 2.14498535575458 3.7095039795324176
thorax -10.155296477611277 0.9312604543586136 1.1637990302568217
lowerneck -22.27612525865802 -2.9116408383286974 -1.4704255108090107
upperneck 12.507547172982733 -3.703375139361385 1.5014178207562259
head 7.482864567858162 -1.6914405847044878 0.1773609710873581
lclavicle -2.2828468750437922e-15 1.3817830482588946e-15
lhumerus -51.953601702803745 -15.015933297659393 100.31599860730078
lradius 95.80396458051109
lwrist 32.77951707458714
lhand -24.827277160593606 2.763846776901359
lfingers 7.12502
lthumb 1.6783799972349895 32.73055849105547
rclavicle -2.2828468750437922e-15 1.3817830482588946e-15
rhumerus -44.12132361891855 9.94586467824381 -95.99437609260956
rradius 107.62363541527955
rwrist -9.926057181572874
rhand -17.466919488716474 39.61418858050849
rfingers 7.12502
rthumb 8.784241394836377 9.515664603537003
47
root -0.19131687012932436 17.02966324242256 18.96312247139163 3.6184381059904176 -2.2441464595289458 -5.765358336132499
lfemur -32.11796402748686 6.3481114791050475 -10.327217071940073
ltibia 97.8097695382954
lfoot -0.017279948554546454 -4.653828939625564
ltoes -4.640827664841738
rfemur -15.914588891706245 3.859200251424627 36.08387289649623
rtibia 56.77000611250039
rfoot -19.29908381336211 -17.248551650447137
rtoes -3.8460504807269618
lowerback 17.036477314783422 1.0453512519326478 3.9685628161682978
upperback -0.16824719749735983 2.504133646329066 3.6228481783012794
thorax -10.126409257698285 1.0758055674058893 0.700354741058398
lowerneck -22.347863344039272 -3.198575499773334 -1.4970886487173904
upperneck 12.321228831496239 -4.118716641147079 1.7027047098329777
head 7.449179409917321 -1.8712826257853263 0.2114145870063247
lclavicle -2.2272075354237187e-15 1.4221638869128139e-15
lhumerus -54.15507240500181 -15.133370918620528 100.68782558591563
lradius 96.67134365341556
lwrist 33.066781669935494
lhand -24.318307734527664 2.6999713054421095
lfingers 7.12502
lthumb 2.1698913057958498 32.65399293032555
rclavicle -2.2272075354237187e-15 1.4221638869128139e-15
rhumerus -42.20880256874888 10.992842870673023 -95.73516651683813
rradius 108.98735403814872
rwrist -10.14350998099054
rhand -17.482025960863396 39.800973131166245
rfingers 7.12502
rthumb 8.769755932005458 9.689299857928967
48
root -0.19449920811198235 17.118170963799944 19.564204204060765 3.914295129153427 -1.4918846017440446 -5.852728815511642
lfemur -36.08729552393352 5.716035892625583 -10.787082025205297
ltibia 96.01559318754246
lfoot -1.5408450743508302 -3.9081722449106278
ltoes -5.72597338224152
rfemur -11.883763917238799 3.3089846658172646 36.20044348621759
rtibia 54.997149105758055
rfoot -18.180150673382855 -16.16108324990249
rtoes -7.739612015416164
lowerback 16.807975496948696 1.2774332248881337 4.402890127678462
upperback -0.30259922854779886 2.87900362814534 3.463047319507977
thorax -10.066456865119909 1.2233446024672183 0.13283996417111998
lowerneck -22.319069749412648 -3.505078358491088 -1.5431879689084889
upperneck 12.294134066772108 -4.561626186301601 1.9033050952506028
head 7.450581398774948 -2.0652621281613497 0.24212122576125245
lclavicle -2.071878239909269e-15 1.5349035074514154e-15
lhumerus -56.31706381341577 -15.13712098973253 100.90650421001848
lradius 97.8889475066804
lwrist 33.413657205002195
lhand -23.71963413004974 2.6164818863461665
lfingers 7.12502
lthumb 2.7480253564999138 32.55600565758826
rclavicle -2.071878239909269e-15 1.5349035074514152e-15
rhumerus -40.67633320819632 11.743934015164621 -95.41364516396982
rradius 110.59390689253297
rwrist -10.399794558533271
rhand -17.504118819491065 40.036656039133106
rfingers 7.12502
rthumb 8.748549753613538 9.92885475280967
49
root -0.19456212413456297 17.23701972826239 19.974285326593176 4.09285793420088 -0.7977091641734818 -5.912404585288206
lfemur -39.61618840369113 4.641613206900561 -11.68769254097402
ltibia 91.98287876806081
lfoot -3.1088484741301463 -3.5133053890821677
ltoes -7.381406645982505
rfemur -7.984425010293185 2.590867758801495 36.010192214530385
rtibia 52.01546678552416
rfoot -15.57947689741487 -14.076850981673697
rtoes -10.809145224033985
lowerback 16.45642311151461 1.4793225581256906 4.800380838361781
upperback -0.4972187079498491 3.1989760187580103 3.21050339989712
thorax -9.992885190646827 1.3453510565638012 -0.5920026470476724
lowerneck -22.189065945163183 -3.84552643788813 -1.6190223518553135
upperneck 12.378717671025063 -5.056386130038649 2.0784937359299827
head 7.4695685514986705 -2.2842024816472377 0.2630833173589433
lclavicle -2.4479500970200943e-15 1.2622331090872369e-15
lhumerus -58.8195807195366 -15.02337362161537 100.85900763918198
lradius 99.02648415732745
lwrist 33.681439410113896
lhand -23.221240350998375 2.541835243026081
lfingers 7.12502
lthumb 3.229315989479959 32.46937909458868
rclavicle -2.4479500970200943e-15 1.2622331090872369e-15
rhumerus -39.72378827234595 12.115910572415308 -95.14599857313524
rradius 112.12880323617505
rwrist -10.689661279632572
rhand -17.546514190893777 40.205848271057405
rfingers 7.12502
rthumb 8.707762044996258 10.13448281025853
